G04*
G04 #@! TF.GenerationSoftware,Altium Limited,Altium Designer,21.6.4 (81)*
G04*
G04 Layer_Physical_Order=1*
G04 Layer_Color=255*
%FSLAX25Y25*%
%MOIN*%
G70*
G04*
G04 #@! TF.SameCoordinates,9F969A03-44F6-4926-99EA-133C1CF4BE5F*
G04*
G04*
G04 #@! TF.FilePolarity,Positive*
G04*
G01*
G75*
%ADD18O,0.06000X0.62000*%
%ADD19R,0.09921X0.09095*%
%ADD20R,0.05709X0.05140*%
%ADD21R,0.13800X0.07700*%
%ADD22R,0.06300X0.03800*%
%ADD23R,0.04134X0.07087*%
%ADD24R,0.07087X0.04134*%
%ADD33C,0.11811*%
%ADD34C,0.07087*%
%ADD35C,0.03937*%
%ADD36C,0.09843*%
%ADD37C,0.07874*%
%ADD38C,0.05118*%
%ADD39C,0.07205*%
%ADD40C,0.07200*%
%ADD41R,0.07200X0.07200*%
%ADD42C,0.08071*%
%ADD43C,0.07677*%
%ADD44R,0.07677X0.07677*%
%ADD45C,0.03543*%
%ADD46C,0.02362*%
D18*
X53276Y188189D02*
D03*
X112276D02*
D03*
D19*
X140157Y97736D02*
D03*
Y73327D02*
D03*
X98622Y98228D02*
D03*
Y73819D02*
D03*
X119193Y97933D02*
D03*
Y73524D02*
D03*
X160728Y97736D02*
D03*
Y73327D02*
D03*
D20*
X84646Y79932D02*
D03*
Y73611D02*
D03*
D21*
X159941Y167998D02*
D03*
Y144798D02*
D03*
D22*
X41240Y66739D02*
D03*
Y78339D02*
D03*
D23*
X101772Y52854D02*
D03*
X111811D02*
D03*
D24*
X67913Y100394D02*
D03*
Y90354D02*
D03*
D33*
X52756Y115256D02*
Y187500D01*
X112276Y172984D02*
Y188189D01*
X140453Y99410D02*
Y110039D01*
X159941Y131595D02*
Y144798D01*
X91368Y98819D02*
X98622D01*
X98819D01*
X84449Y86811D02*
Y91900D01*
X173721Y122539D02*
X190748D01*
X173917Y43799D02*
X190748D01*
X99803Y72638D02*
X119390D01*
X120374Y72342D02*
X140256D01*
X141043Y72441D02*
X159843D01*
X163091Y72047D02*
X171358Y63779D01*
X161417Y72047D02*
X163091D01*
X171358Y63779D02*
X190157D01*
X84252Y87008D02*
X84449Y86811D01*
X98819Y98819D02*
X99213Y99213D01*
X98622Y98819D02*
Y108858D01*
Y98228D02*
Y98819D01*
X84449Y91900D02*
X91368Y98819D01*
X84449Y84153D02*
Y86811D01*
X98770Y98081D02*
X119045D01*
X52559Y79016D02*
Y115354D01*
X191339Y142224D02*
X191535Y142421D01*
X190650Y143701D02*
Y144488D01*
X190748Y142224D02*
X191339D01*
X140157Y97736D02*
X160728D01*
X119291Y97835D02*
X140059D01*
X118799Y99114D02*
Y109744D01*
X158858Y99705D02*
Y110335D01*
X112276Y172984D02*
X115181Y170079D01*
X165059D01*
X190650Y144488D01*
D34*
X80964Y72047D02*
X98819D01*
X73228Y73347D02*
X79665D01*
X80964Y72047D01*
X53198Y68347D02*
X53228D01*
X40354Y64862D02*
X41086Y64131D01*
X47779D01*
X49938Y66290D02*
X51141D01*
X53198Y68347D01*
X47779Y64131D02*
X49938Y66290D01*
D35*
X111811Y52854D02*
X117913D01*
X101673Y53100D02*
X101772Y53199D01*
X73474Y53100D02*
X101673D01*
X73425Y53150D02*
X73425D01*
X73425D02*
X73474Y53100D01*
X101772Y53199D02*
Y53248D01*
X84646Y73611D02*
X85925Y72332D01*
X84449Y80129D02*
X84646Y79932D01*
X84449Y80129D02*
Y84153D01*
X112276Y143280D02*
Y172984D01*
X68209Y100394D02*
X69390D01*
X112276Y143280D01*
X66437Y90354D02*
X67913D01*
X66339Y88779D02*
Y90256D01*
X66437Y90354D01*
X63386Y85827D02*
X66339Y88779D01*
X63386Y55456D02*
X65692Y53150D01*
X63386Y55456D02*
Y85827D01*
X65692Y53150D02*
X73425D01*
X73228Y53347D02*
X73425Y53150D01*
X190453Y63484D02*
X190748D01*
X159941Y131595D02*
X160039Y131496D01*
X159547Y168391D02*
X159941Y167998D01*
D36*
X77126Y62783D02*
X84461D01*
X98622Y73661D02*
Y73819D01*
Y73661D02*
X98661Y73622D01*
X95506Y73779D02*
X98583D01*
X94845Y73119D02*
X95506Y73779D01*
X84252Y60790D02*
X84461Y61000D01*
Y62783D01*
X73228Y63346D02*
X76563D01*
X77126Y62783D01*
X91348Y73119D02*
X94845D01*
X90999Y72770D02*
X91348Y73119D01*
D37*
X89169Y72332D02*
X89607Y72770D01*
X90999D01*
X87894Y72332D02*
X89169D01*
D38*
X85925D02*
X87894D01*
D39*
X40453Y80118D02*
X51457D01*
X52559Y79016D01*
X53228Y78347D01*
D40*
Y48346D02*
D03*
X73228Y53347D02*
D03*
X53228Y58346D02*
D03*
X73228Y63346D02*
D03*
X53228Y68347D02*
D03*
X73228Y73347D02*
D03*
D41*
X53228Y78347D02*
D03*
D42*
X106083Y118110D02*
D03*
X52972D02*
D03*
D43*
X190748Y142224D02*
D03*
X190748Y63484D02*
D03*
D44*
X190748Y122539D02*
D03*
X190748Y43799D02*
D03*
D45*
X137402Y110630D02*
D03*
X143307D02*
D03*
X174016Y40846D02*
D03*
X174114Y47047D02*
D03*
X174016Y119488D02*
D03*
X174114Y125689D02*
D03*
X84252Y59449D02*
D03*
Y64961D02*
D03*
X86811Y88090D02*
D03*
X81398Y88189D02*
D03*
X101476Y109449D02*
D03*
X95571D02*
D03*
X161713Y110925D02*
D03*
X162894Y131693D02*
D03*
X156988D02*
D03*
X155807Y110925D02*
D03*
X121653Y110335D02*
D03*
X115748D02*
D03*
D46*
X117618Y52953D02*
D03*
M02*
