G04*
G04 #@! TF.GenerationSoftware,Altium Limited,Altium Designer,21.6.4 (81)*
G04*
G04 Layer_Color=255*
%FSLAX25Y25*%
%MOIN*%
G70*
G04*
G04 #@! TF.SameCoordinates,9F969A03-44F6-4926-99EA-133C1CF4BE5F*
G04*
G04*
G04 #@! TF.FilePolarity,Positive*
G04*
G01*
G75*
%ADD18O,0.06000X0.62000*%
%ADD19R,0.09921X0.09095*%
%ADD20R,0.05709X0.05140*%
%ADD21R,0.13800X0.07700*%
%ADD22R,0.06300X0.03800*%
%ADD23R,0.04134X0.07087*%
%ADD24R,0.07087X0.04134*%
%ADD40C,0.07200*%
%ADD41R,0.07200X0.07200*%
%ADD42C,0.08071*%
%ADD43C,0.07677*%
%ADD44R,0.07677X0.07677*%
D18*
X53276Y188189D02*
D03*
X112276D02*
D03*
D19*
X140157Y97736D02*
D03*
Y73327D02*
D03*
X98622Y98228D02*
D03*
Y73819D02*
D03*
X119193Y97933D02*
D03*
Y73524D02*
D03*
X160728Y97736D02*
D03*
Y73327D02*
D03*
D20*
X84646Y79932D02*
D03*
Y73611D02*
D03*
D21*
X159941Y167998D02*
D03*
Y144798D02*
D03*
D22*
X41240Y66739D02*
D03*
Y78339D02*
D03*
D23*
X101772Y52854D02*
D03*
X111811D02*
D03*
D24*
X67913Y100394D02*
D03*
Y90354D02*
D03*
D40*
X53228Y48346D02*
D03*
X73228Y53347D02*
D03*
X53228Y58346D02*
D03*
X73228Y63346D02*
D03*
X53228Y68347D02*
D03*
X73228Y73347D02*
D03*
D41*
X53228Y78347D02*
D03*
D42*
X106083Y118110D02*
D03*
X52972D02*
D03*
D43*
X190748Y142224D02*
D03*
X190748Y63484D02*
D03*
D44*
X190748Y122539D02*
D03*
X190748Y43799D02*
D03*
M02*
