G04*
G04 #@! TF.GenerationSoftware,Altium Limited,Altium Designer,21.6.4 (81)*
G04*
G04 Layer_Color=32768*
%FSLAX25Y25*%
%MOIN*%
G70*
G04*
G04 #@! TF.SameCoordinates,9F969A03-44F6-4926-99EA-133C1CF4BE5F*
G04*
G04*
G04 #@! TF.FilePolarity,Positive*
G04*
G01*
G75*
%ADD12C,0.00600*%
%ADD49C,0.00197*%
G36*
X130776Y140189D02*
X34776D01*
Y236189D01*
X130776D01*
Y140189D01*
D02*
G37*
G36*
X167841Y139948D02*
X152041D01*
Y172848D01*
X167841D01*
Y139948D01*
D02*
G37*
G36*
X45390Y63839D02*
X37090D01*
Y81239D01*
X45390D01*
Y63839D01*
D02*
G37*
G36*
X85528Y83502D02*
X88500D01*
Y70041D01*
X85528D01*
Y41846D01*
X48628D01*
Y84847D01*
X85528D01*
Y83502D01*
D02*
G37*
D12*
X130776Y140189D02*
Y236189D01*
X34776Y140189D02*
X130776D01*
X34776D02*
Y236189D01*
X130776D01*
X85528Y41846D02*
Y84847D01*
X48628Y41846D02*
X85528D01*
X48628D02*
Y84847D01*
X85528D01*
X88500Y70041D02*
Y83502D01*
X80791D02*
X88500D01*
X80791Y70041D02*
Y83502D01*
Y70041D02*
X88500D01*
X167841Y139948D02*
Y172848D01*
X152041D02*
X167841D01*
X152041Y139948D02*
Y172848D01*
Y139948D02*
X167841D01*
X37090Y63839D02*
X45390D01*
X37090D02*
Y81239D01*
X45390D01*
Y63839D02*
Y81239D01*
D49*
X130315Y103268D02*
X150000D01*
X130315Y67795D02*
X150000D01*
X130315D02*
Y103268D01*
X150000Y67795D02*
Y103268D01*
X88779Y103760D02*
X108465D01*
X88779Y68287D02*
X108465D01*
X88779D02*
Y103760D01*
X108465Y68287D02*
Y103760D01*
X189764Y132382D02*
X193701D01*
X191732Y130413D02*
Y134350D01*
X176181Y111909D02*
Y152854D01*
X207283D01*
Y111909D02*
Y152854D01*
X176181Y111909D02*
X207283D01*
X189764Y53642D02*
X193701D01*
X191732Y51673D02*
Y55610D01*
X176181Y33169D02*
Y74114D01*
X207283D01*
Y33169D02*
Y74114D01*
X176181Y33169D02*
X207283D01*
X109350Y103465D02*
X129035D01*
X109350Y67992D02*
X129035D01*
X109350D02*
Y103465D01*
X129035Y67992D02*
Y103465D01*
X150886Y103268D02*
X170571D01*
X150886Y67795D02*
X170571D01*
X150886D02*
Y103268D01*
X170571Y67795D02*
Y103268D01*
M02*
