%TF.GenerationSoftware,Altium Limited,Altium Designer,21.6.4 (81)*%
G04 Layer_Color=32768*
%FSLAX26Y26*%
%MOIN*%
%TF.SameCoordinates,D1CDB01D-C4A6-469F-8C54-8347A019B806*%
%TF.FilePolarity,Positive*%
%TF.FileFunction,Other,Mechanical_15*%
%TF.Part,Single*%
G01*
G75*
%TA.AperFunction,NonConductor*%
%ADD42C,0.006000*%
%ADD49C,0.001968*%
G36*
X1307756Y1401890D02*
X347756D01*
Y2361890D01*
X1307756D01*
Y1401890D01*
D02*
G37*
G36*
X1678409Y1399476D02*
X1520409D01*
Y1728476D01*
X1678409D01*
Y1399476D01*
D02*
G37*
G36*
X453901Y638394D02*
X370901D01*
Y812394D01*
X453901D01*
Y638394D01*
D02*
G37*
G36*
X855283Y835024D02*
X885000D01*
Y700409D01*
X855283D01*
Y418464D01*
X486283D01*
Y848465D01*
X855283D01*
Y835024D01*
D02*
G37*
D42*
X1307756Y1401890D02*
Y2361890D01*
X347756Y1401890D02*
X1307756D01*
X347756D02*
Y2361890D01*
X1307756D01*
X855283Y418464D02*
Y848465D01*
X486283Y418464D02*
X855283D01*
X486283D02*
Y848465D01*
X855283D01*
X885000Y700409D02*
Y835024D01*
X807913D02*
X885000D01*
X807913Y700409D02*
Y835024D01*
Y700409D02*
X885000D01*
X1678409Y1399476D02*
Y1728476D01*
X1520409D02*
X1678409D01*
X1520409Y1399476D02*
Y1728476D01*
Y1399476D02*
X1678409D01*
X370901Y638394D02*
X453901D01*
X370901D02*
Y812394D01*
X453901D01*
Y638394D02*
Y812394D01*
D49*
X1303149Y1032677D02*
X1500000D01*
X1303149Y677953D02*
X1500000D01*
X1303149D02*
Y1032677D01*
X1500000Y677953D02*
Y1032677D01*
X887795Y1037598D02*
X1084646D01*
X887795Y682874D02*
X1084646D01*
X887795D02*
Y1037598D01*
X1084646Y682874D02*
Y1037598D01*
X1897638Y1323819D02*
X1937008D01*
X1917323Y1304134D02*
Y1343504D01*
X1761811Y1119094D02*
Y1528543D01*
X2072835D01*
Y1119094D02*
Y1528543D01*
X1761811Y1119094D02*
X2072835D01*
X1897638Y536417D02*
X1937008D01*
X1917323Y516732D02*
Y556102D01*
X1761811Y331693D02*
Y741142D01*
X2072835D01*
Y331693D02*
Y741142D01*
X1761811Y331693D02*
X2072835D01*
X1093504Y1034646D02*
X1290354D01*
X1093504Y679921D02*
X1290354D01*
X1093504D02*
Y1034646D01*
X1290354Y679921D02*
Y1034646D01*
X1508858Y1032677D02*
X1705708D01*
X1508858Y677953D02*
X1705708D01*
X1508858D02*
Y1032677D01*
X1705708Y677953D02*
Y1032677D01*
%TF.MD5,e677acf471453eabfe76ffff93544a9e*%
M02*
