%TF.GenerationSoftware,Altium Limited,Altium Designer,21.6.4 (81)*%
G04 Layer_Color=16711935*
%FSLAX26Y26*%
%MOIN*%
%TF.SameCoordinates,D1CDB01D-C4A6-469F-8C54-8347A019B806*%
%TF.FilePolarity,Positive*%
%TF.FileFunction,Other,Mechanical_13*%
%TF.Part,Single*%
G01*
G75*
%TA.AperFunction,NonConductor*%
%ADD32C,0.020000*%
%ADD33C,0.007874*%
%ADD34C,0.003937*%
%ADD43C,0.005000*%
%ADD48C,0.001000*%
D32*
X1257756Y1806890D02*
G03*
X1257756Y1806890I-15000J0D01*
G01*
D33*
X1405512Y655315D02*
G03*
X1405512Y655315I-3937J0D01*
G01*
X990157Y660236D02*
G03*
X990157Y660236I-3937J0D01*
G01*
X1195866Y657284D02*
G03*
X1195866Y657284I-3937J0D01*
G01*
X1611220Y655315D02*
G03*
X1611220Y655315I-3937J0D01*
G01*
D34*
X1769685Y1126968D02*
X2064961D01*
X1769685Y1520669D02*
X2064961D01*
X1769685Y1126968D02*
Y1520669D01*
X2064961Y1126968D02*
Y1520669D01*
X2033465Y1323819D02*
X2064961D01*
X2033465Y1126968D02*
Y1520669D01*
X1769685Y339567D02*
X2064961D01*
X1769685Y733268D02*
X2064961D01*
X1769685Y339567D02*
Y733268D01*
X2064961Y339567D02*
Y733268D01*
X2033465Y536417D02*
X2064961D01*
X2033465Y339567D02*
Y733268D01*
D43*
X1312992Y707677D02*
X1490157D01*
X1312992Y1002953D02*
X1490157D01*
X1312992Y707677D02*
Y1002953D01*
X1490157Y707677D02*
Y1002953D01*
X897638Y712598D02*
X1074803D01*
X897638Y1007874D02*
X1074803D01*
X897638Y712598D02*
Y1007874D01*
X1074803Y712598D02*
Y1007874D01*
X1103346Y709646D02*
X1280512D01*
X1103346Y1004921D02*
X1280512D01*
X1103346Y709646D02*
Y1004921D01*
X1280512Y709646D02*
Y1004921D01*
X1518701Y707677D02*
X1695866D01*
X1518701Y1002953D02*
X1695866D01*
X1518701Y707677D02*
Y1002953D01*
X1695866Y707677D02*
Y1002953D01*
D48*
X1297756Y1411890D02*
Y2351890D01*
X357756Y1411890D02*
X1297756D01*
X357756D02*
Y2351890D01*
X1297756D01*
X660283Y838465D02*
X760283D01*
X845283Y428464D02*
Y838465D01*
X660283Y428464D02*
Y838465D01*
X817913Y724409D02*
X875000D01*
X817913D02*
Y811024D01*
X875000D01*
Y724409D02*
Y811024D01*
X817913Y781496D02*
Y811024D01*
X875000D01*
Y781496D02*
Y811024D01*
X817913Y781496D02*
X875000D01*
Y724409D02*
Y753937D01*
X817913Y724409D02*
X875000D01*
X817913D02*
Y753937D01*
X875000D01*
X1530409Y1423476D02*
X1668409D01*
X1530409D02*
Y1704476D01*
X1668409D01*
Y1423476D02*
Y1704476D01*
X1530409Y1641476D02*
Y1704476D01*
X1668409D01*
Y1641476D02*
Y1704476D01*
X1530409Y1641476D02*
X1668409D01*
Y1423476D02*
Y1486476D01*
X1530409Y1423476D02*
X1668409D01*
X1530409D02*
Y1486476D01*
X1668409D01*
X380901Y686394D02*
X443901D01*
X380901Y662394D02*
Y686394D01*
Y662394D02*
X443901D01*
Y686394D01*
X380901Y764394D02*
X443901D01*
Y788394D01*
X380901D02*
X443901D01*
X380901Y764394D02*
Y788394D01*
X443901Y662394D02*
Y788394D01*
X380901D02*
X443901D01*
X380901Y662394D02*
Y788394D01*
Y662394D02*
X443901D01*
%TF.MD5,7f598e8057cf17cfda87f5619cf0a835*%
M02*
