G04*
G04 #@! TF.GenerationSoftware,Altium Limited,Altium Designer,21.6.4 (81)*
G04*
G04 Layer_Color=32896*
%FSLAX25Y25*%
%MOIN*%
G70*
G04*
G04 #@! TF.SameCoordinates,5859FE92-40B9-4657-A5CE-F15D5BB89CAD*
G04*
G04*
G04 #@! TF.FilePolarity,Positive*
G04*
G01*
G75*
%ADD10C,0.02000*%
%ADD11C,0.00787*%
%ADD14C,0.00394*%
D10*
X138776Y188189D02*
X138425Y189153D01*
X137536Y189666D01*
X136526Y189488D01*
X135866Y188702D01*
Y187676D01*
X136526Y186890D01*
X137536Y186712D01*
X138425Y187225D01*
X138776Y188189D01*
D11*
X58661Y60342D02*
Y64067D01*
X64961Y60342D02*
Y64067D01*
X68307Y39862D02*
X71260D01*
X68307Y46752D02*
X71260D01*
D14*
X67518Y72244D02*
Y74212D01*
X66534D01*
X66206Y73884D01*
Y73228D01*
X66534Y72900D01*
X67518D01*
X66862D02*
X66206Y72244D01*
X65550D02*
X64894D01*
X65222D01*
Y74212D01*
X65550Y73884D01*
X63910Y72244D02*
X63254D01*
X63582D01*
Y74212D01*
X63910Y73884D01*
X62270Y72244D02*
Y72572D01*
X61942D01*
Y72244D01*
X62270D01*
X59319Y74212D02*
X60631D01*
Y73228D01*
X59975Y73556D01*
X59647D01*
X59319Y73228D01*
Y72572D01*
X59647Y72244D01*
X60303D01*
X60631Y72572D01*
X58663Y72244D02*
Y74212D01*
Y72900D02*
X57679Y73556D01*
X58663Y72900D02*
X57679Y72244D01*
X79429Y42881D02*
X81397D01*
Y43865D01*
X81069Y44193D01*
X80413D01*
X80085Y43865D01*
Y42881D01*
Y43537D02*
X79429Y44193D01*
Y44849D02*
Y45505D01*
Y45177D01*
X81397D01*
X81069Y44849D01*
X79429Y46489D02*
X81397D01*
X80085D02*
X80741Y47473D01*
X80085Y46489D02*
X79429Y47473D01*
M02*
