%TF.GenerationSoftware,Altium Limited,Altium Designer,21.6.4 (81)*%
G04 Layer_Color=16711935*
%FSLAX26Y26*%
%MOIN*%
%TF.SameCoordinates,D1CDB01D-C4A6-469F-8C54-8347A019B806*%
%TF.FilePolarity,Positive*%
%TF.FileFunction,Other,Bottom_Assembly*%
%TF.Part,Single*%
G01*
G75*
%TA.AperFunction,NonConductor*%
%ADD33C,0.007874*%
G36*
X630012Y722984D02*
X636819Y730009D01*
Y725969D01*
X629357Y718652D01*
X643735D01*
Y715558D01*
X618546D01*
Y718652D01*
X625790D01*
X627865Y720800D01*
X618546Y726879D01*
Y730701D01*
X630012Y722984D01*
D02*
G37*
G36*
X627719Y711773D02*
X628338Y711700D01*
X628957Y711591D01*
X629503Y711445D01*
X630012Y711263D01*
X630522Y711081D01*
X630959Y710863D01*
X631359Y710681D01*
X631723Y710462D01*
X632051Y710244D01*
X632306Y710062D01*
X632560Y709880D01*
X632742Y709734D01*
X632852Y709625D01*
X632924Y709552D01*
X632961Y709516D01*
X633361Y709079D01*
X633725Y708642D01*
X634016Y708169D01*
X634271Y707696D01*
X634526Y707223D01*
X634708Y706749D01*
X634963Y705876D01*
X635072Y705475D01*
X635145Y705111D01*
X635181Y704784D01*
X635218Y704493D01*
X635254Y704274D01*
Y703473D01*
X635181Y703037D01*
X634999Y702163D01*
X634744Y701362D01*
X634453Y700634D01*
X634162Y700052D01*
X634016Y699797D01*
X633907Y699579D01*
X633798Y699397D01*
X633725Y699287D01*
X633689Y699215D01*
X633652Y699178D01*
X640459Y700525D01*
Y710608D01*
X643408D01*
Y698086D01*
X630449Y695647D01*
X630049Y698559D01*
X630449Y698814D01*
X630777Y699142D01*
X631104Y699433D01*
X631359Y699724D01*
X631541Y700015D01*
X631723Y700234D01*
X631796Y700379D01*
X631832Y700416D01*
X632051Y700889D01*
X632233Y701362D01*
X632342Y701799D01*
X632451Y702236D01*
X632488Y702600D01*
X632524Y702891D01*
Y703583D01*
X632451Y704019D01*
X632269Y704784D01*
X632014Y705439D01*
X631760Y706021D01*
X631468Y706458D01*
X631214Y706786D01*
X631032Y706968D01*
X630995Y707041D01*
X630959D01*
X630340Y707550D01*
X629685Y707914D01*
X628993Y708169D01*
X628302Y708351D01*
X627719Y708460D01*
X627464Y708497D01*
X627246D01*
X627064Y708533D01*
X626918D01*
X626846D01*
X626809D01*
X626300D01*
X625826Y708460D01*
X624916Y708278D01*
X624152Y708023D01*
X623533Y707769D01*
X623024Y707477D01*
X622623Y707223D01*
X622514Y707113D01*
X622405Y707041D01*
X622368Y707004D01*
X622332Y706968D01*
X622041Y706677D01*
X621786Y706385D01*
X621349Y705730D01*
X621058Y705111D01*
X620876Y704493D01*
X620730Y703983D01*
X620694Y703546D01*
X620658Y703401D01*
Y703182D01*
X620694Y702491D01*
X620840Y701872D01*
X621022Y701326D01*
X621240Y700889D01*
X621458Y700489D01*
X621640Y700197D01*
X621786Y700052D01*
X621822Y699979D01*
X622332Y699542D01*
X622878Y699178D01*
X623497Y698887D01*
X624043Y698669D01*
X624589Y698523D01*
X624989Y698414D01*
X625171Y698377D01*
X625280Y698341D01*
X625353D01*
X625390D01*
X625135Y695101D01*
X624552Y695174D01*
X624006Y695283D01*
X622987Y695611D01*
X622114Y696011D01*
X621713Y696230D01*
X621386Y696448D01*
X621058Y696630D01*
X620767Y696849D01*
X620548Y697031D01*
X620366Y697213D01*
X620221Y697358D01*
X620075Y697431D01*
X620039Y697504D01*
X620002Y697540D01*
X619675Y697977D01*
X619384Y698414D01*
X619129Y698887D01*
X618910Y699360D01*
X618583Y700270D01*
X618364Y701180D01*
X618255Y701581D01*
X618219Y701981D01*
X618182Y702309D01*
X618146Y702600D01*
X618110Y702855D01*
Y703182D01*
X618146Y703947D01*
X618255Y704675D01*
X618401Y705366D01*
X618583Y705985D01*
X618838Y706567D01*
X619092Y707113D01*
X619347Y707623D01*
X619638Y708060D01*
X619930Y708460D01*
X620184Y708824D01*
X620476Y709115D01*
X620694Y709370D01*
X620876Y709552D01*
X621022Y709698D01*
X621131Y709771D01*
X621167Y709807D01*
X621640Y710171D01*
X622150Y710462D01*
X622623Y710753D01*
X623133Y710972D01*
X624116Y711336D01*
X625062Y711554D01*
X625462Y711627D01*
X625863Y711700D01*
X626190Y711736D01*
X626482Y711773D01*
X626736Y711809D01*
X626918D01*
X627028D01*
X627064D01*
X627719Y711773D01*
D02*
G37*
G36*
X622077Y687057D02*
X618546D01*
Y690588D01*
X622077D01*
Y687057D01*
D02*
G37*
G36*
X643844Y675373D02*
X643226Y675009D01*
X642643Y674608D01*
X642061Y674135D01*
X641551Y673698D01*
X641114Y673261D01*
X640750Y672934D01*
X640641Y672788D01*
X640532Y672679D01*
X640496Y672643D01*
X640459Y672606D01*
X639840Y671842D01*
X639258Y671077D01*
X638748Y670349D01*
X638348Y669621D01*
X637984Y669003D01*
X637838Y668748D01*
X637729Y668529D01*
X637620Y668347D01*
X637584Y668202D01*
X637511Y668129D01*
Y668093D01*
X634526D01*
X634744Y668639D01*
X634999Y669185D01*
X635254Y669731D01*
X635509Y670240D01*
X635727Y670677D01*
X635909Y671041D01*
X636055Y671259D01*
X636091Y671296D01*
Y671332D01*
X636492Y671987D01*
X636892Y672570D01*
X637256Y673079D01*
X637584Y673480D01*
X637838Y673844D01*
X638057Y674062D01*
X638202Y674244D01*
X638239Y674281D01*
X618546D01*
Y677375D01*
X643844D01*
Y675373D01*
D02*
G37*
G36*
Y655789D02*
X643226Y655425D01*
X642643Y655025D01*
X642061Y654552D01*
X641551Y654115D01*
X641114Y653678D01*
X640750Y653351D01*
X640641Y653205D01*
X640532Y653096D01*
X640496Y653059D01*
X640459Y653023D01*
X639840Y652259D01*
X639258Y651494D01*
X638748Y650766D01*
X638348Y650038D01*
X637984Y649419D01*
X637838Y649165D01*
X637729Y648946D01*
X637620Y648764D01*
X637584Y648619D01*
X637511Y648546D01*
Y648509D01*
X634526D01*
X634744Y649055D01*
X634999Y649601D01*
X635254Y650147D01*
X635509Y650657D01*
X635727Y651094D01*
X635909Y651458D01*
X636055Y651676D01*
X636091Y651713D01*
Y651749D01*
X636492Y652404D01*
X636892Y652987D01*
X637256Y653496D01*
X637584Y653897D01*
X637838Y654261D01*
X638057Y654479D01*
X638202Y654661D01*
X638239Y654697D01*
X618546D01*
Y657791D01*
X643844D01*
Y655789D01*
D02*
G37*
G36*
X625390Y639846D02*
X626118Y639337D01*
X626773Y638863D01*
X627319Y638390D01*
X627828Y637990D01*
X628192Y637626D01*
X628484Y637335D01*
X628666Y637153D01*
X628738Y637080D01*
X628957Y636789D01*
X629212Y636461D01*
X629612Y635806D01*
X629758Y635515D01*
X629903Y635296D01*
X629976Y635151D01*
X630012Y635078D01*
X630122Y635733D01*
X630231Y636352D01*
X630413Y636898D01*
X630558Y637444D01*
X630740Y637917D01*
X630959Y638354D01*
X631141Y638754D01*
X631323Y639118D01*
X631541Y639409D01*
X631723Y639701D01*
X631869Y639919D01*
X632014Y640101D01*
X632124Y640247D01*
X632233Y640356D01*
X632269Y640392D01*
X632306Y640429D01*
X632670Y640720D01*
X633034Y641011D01*
X633798Y641448D01*
X634562Y641739D01*
X635290Y641957D01*
X635909Y642103D01*
X636164Y642139D01*
X636419D01*
X636601Y642176D01*
X636746D01*
X636819D01*
X636856D01*
X637620Y642139D01*
X638312Y642030D01*
X638967Y641848D01*
X639513Y641666D01*
X639986Y641448D01*
X640350Y641302D01*
X640568Y641157D01*
X640605Y641120D01*
X640641D01*
X641224Y640683D01*
X641733Y640247D01*
X642170Y639773D01*
X642498Y639337D01*
X642752Y638936D01*
X642898Y638609D01*
X643007Y638390D01*
X643044Y638354D01*
Y638317D01*
X643153Y637990D01*
X643262Y637589D01*
X643444Y636789D01*
X643553Y635915D01*
X643662Y635114D01*
X643699Y634350D01*
Y634022D01*
X643735Y633731D01*
Y622047D01*
X618546D01*
Y625395D01*
X629721D01*
Y629691D01*
X629685Y630091D01*
Y630382D01*
X629648Y630637D01*
X629612Y630819D01*
Y630965D01*
X629576Y631037D01*
Y631074D01*
X629394Y631656D01*
X629284Y631911D01*
X629175Y632129D01*
X629066Y632348D01*
X628993Y632493D01*
X628957Y632566D01*
X628920Y632603D01*
X628702Y632894D01*
X628447Y633185D01*
X627901Y633731D01*
X627646Y633986D01*
X627428Y634168D01*
X627282Y634277D01*
X627246Y634313D01*
X626736Y634677D01*
X626190Y635078D01*
X625608Y635478D01*
X625062Y635879D01*
X624552Y636206D01*
X624152Y636461D01*
X624006Y636570D01*
X623897Y636643D01*
X623824Y636716D01*
X623788D01*
X618546Y640028D01*
Y644178D01*
X625390Y639846D01*
D02*
G37*
G36*
X664456Y457750D02*
X664857Y457167D01*
X665330Y456585D01*
X665767Y456075D01*
X666203Y455638D01*
X666531Y455274D01*
X666677Y455165D01*
X666786Y455056D01*
X666822Y455020D01*
X666859Y454983D01*
X667623Y454364D01*
X668387Y453782D01*
X669115Y453272D01*
X669843Y452872D01*
X670462Y452508D01*
X670717Y452362D01*
X670935Y452253D01*
X671117Y452144D01*
X671263Y452108D01*
X671336Y452035D01*
X671372D01*
Y449050D01*
X670826Y449268D01*
X670280Y449523D01*
X669734Y449778D01*
X669225Y450033D01*
X668788Y450251D01*
X668424Y450433D01*
X668205Y450579D01*
X668169Y450615D01*
X668133D01*
X667477Y451016D01*
X666895Y451416D01*
X666385Y451780D01*
X665985Y452108D01*
X665621Y452362D01*
X665403Y452581D01*
X665221Y452726D01*
X665184Y452763D01*
Y433070D01*
X662090D01*
Y458368D01*
X664092D01*
X664456Y457750D01*
D02*
G37*
G36*
X653281Y433070D02*
X650187D01*
Y440314D01*
X648040Y442389D01*
X641961Y433070D01*
X638139D01*
X645856Y444536D01*
X638831Y451343D01*
X642871D01*
X650187Y443881D01*
Y458259D01*
X653281D01*
Y433070D01*
D02*
G37*
G36*
X697835D02*
X694486D01*
Y444245D01*
X690191D01*
X689791Y444209D01*
X689499D01*
X689245Y444172D01*
X689063Y444136D01*
X688917D01*
X688844Y444100D01*
X688808D01*
X688225Y443918D01*
X687971Y443808D01*
X687752Y443699D01*
X687534Y443590D01*
X687388Y443517D01*
X687315Y443481D01*
X687279Y443444D01*
X686988Y443226D01*
X686697Y442971D01*
X686151Y442425D01*
X685896Y442170D01*
X685714Y441952D01*
X685605Y441806D01*
X685568Y441770D01*
X685204Y441260D01*
X684804Y440714D01*
X684403Y440132D01*
X684003Y439586D01*
X683675Y439076D01*
X683421Y438676D01*
X683311Y438530D01*
X683239Y438421D01*
X683166Y438348D01*
Y438312D01*
X679853Y433070D01*
X675704D01*
X680035Y439914D01*
X680545Y440642D01*
X681018Y441297D01*
X681491Y441843D01*
X681892Y442352D01*
X682256Y442716D01*
X682547Y443008D01*
X682729Y443190D01*
X682802Y443262D01*
X683093Y443481D01*
X683421Y443736D01*
X684076Y444136D01*
X684367Y444282D01*
X684585Y444427D01*
X684731Y444500D01*
X684804Y444536D01*
X684149Y444646D01*
X683530Y444755D01*
X682984Y444937D01*
X682438Y445082D01*
X681965Y445264D01*
X681528Y445483D01*
X681127Y445665D01*
X680763Y445847D01*
X680472Y446065D01*
X680181Y446247D01*
X679963Y446393D01*
X679781Y446538D01*
X679635Y446648D01*
X679526Y446757D01*
X679489Y446793D01*
X679453Y446830D01*
X679162Y447194D01*
X678871Y447558D01*
X678434Y448322D01*
X678143Y449086D01*
X677924Y449814D01*
X677779Y450433D01*
X677742Y450688D01*
Y450943D01*
X677706Y451125D01*
Y451270D01*
Y451343D01*
Y451380D01*
X677742Y452144D01*
X677851Y452836D01*
X678033Y453491D01*
X678215Y454037D01*
X678434Y454510D01*
X678579Y454874D01*
X678725Y455092D01*
X678761Y455129D01*
Y455165D01*
X679198Y455748D01*
X679635Y456257D01*
X680108Y456694D01*
X680545Y457022D01*
X680945Y457276D01*
X681273Y457422D01*
X681491Y457531D01*
X681528Y457568D01*
X681564D01*
X681892Y457677D01*
X682292Y457786D01*
X683093Y457968D01*
X683967Y458077D01*
X684767Y458186D01*
X685532Y458223D01*
X685859D01*
X686151Y458259D01*
X697835D01*
Y433070D01*
D02*
G37*
%LPC*%
G36*
X636892Y638754D02*
X636856D01*
X636819D01*
X636382Y638718D01*
X635946Y638645D01*
X635582Y638536D01*
X635254Y638427D01*
X634963Y638281D01*
X634744Y638172D01*
X634599Y638099D01*
X634562Y638063D01*
X634198Y637808D01*
X633871Y637480D01*
X633616Y637153D01*
X633398Y636825D01*
X633252Y636534D01*
X633143Y636315D01*
X633070Y636170D01*
X633034Y636097D01*
X632888Y635587D01*
X632779Y635005D01*
X632706Y634423D01*
X632670Y633840D01*
X632633Y633331D01*
X632597Y632894D01*
Y625395D01*
X640932D01*
Y633331D01*
X640896Y634313D01*
X640750Y635151D01*
X640568Y635879D01*
X640350Y636425D01*
X640132Y636898D01*
X639950Y637189D01*
X639804Y637371D01*
X639768Y637444D01*
X639294Y637881D01*
X638821Y638208D01*
X638312Y638427D01*
X637875Y638609D01*
X637438Y638681D01*
X637110Y638718D01*
X636892Y638754D01*
D02*
G37*
G36*
X694486Y455456D02*
X686551D01*
X685568Y455420D01*
X684731Y455274D01*
X684003Y455092D01*
X683457Y454874D01*
X682984Y454656D01*
X682693Y454474D01*
X682511Y454328D01*
X682438Y454292D01*
X682001Y453818D01*
X681673Y453345D01*
X681455Y452836D01*
X681273Y452399D01*
X681200Y451962D01*
X681164Y451634D01*
X681127Y451416D01*
Y451380D01*
Y451343D01*
X681164Y450906D01*
X681237Y450470D01*
X681346Y450106D01*
X681455Y449778D01*
X681601Y449487D01*
X681710Y449268D01*
X681783Y449123D01*
X681819Y449086D01*
X682074Y448722D01*
X682401Y448395D01*
X682729Y448140D01*
X683057Y447922D01*
X683348Y447776D01*
X683566Y447667D01*
X683712Y447594D01*
X683785Y447558D01*
X684294Y447412D01*
X684877Y447303D01*
X685459Y447230D01*
X686041Y447194D01*
X686551Y447157D01*
X686988Y447121D01*
X694486D01*
Y455456D01*
D02*
G37*
%LPD*%
D33*
X579724Y547082D02*
X656496D01*
X579724D02*
Y697012D01*
X656496D01*
Y547082D02*
Y697012D01*
X772638Y393701D02*
Y472441D01*
X623031Y393701D02*
X772638D01*
X623031D02*
Y472441D01*
X772638D01*
%TF.MD5,75b8e9ee66916005e9bc212e727c3549*%
M02*
