%TF.GenerationSoftware,Altium Limited,Altium Designer,21.6.4 (81)*%
G04 Layer_Color=32896*
%FSLAX26Y26*%
%MOIN*%
%TF.SameCoordinates,D1CDB01D-C4A6-469F-8C54-8347A019B806*%
%TF.FilePolarity,Positive*%
%TF.FileFunction,Legend,Bot*%
%TF.Part,Single*%
G01*
G75*
%TA.AperFunction,NonConductor*%
%ADD32C,0.020000*%
%ADD33C,0.007874*%
%ADD34C,0.003937*%
D32*
X1387756Y1881890D02*
G03*
X1387756Y1881890I-15000J0D01*
G01*
D33*
X586614Y603423D02*
Y640671D01*
X649606Y603423D02*
Y640671D01*
X683071Y398622D02*
X712598D01*
X683071Y467520D02*
X712598D01*
D34*
X675181Y722444D02*
Y742123D01*
X665342D01*
X662062Y738843D01*
Y732284D01*
X665342Y729004D01*
X675181D01*
X668621D02*
X662062Y722444D01*
X655502D02*
X648943D01*
X652222D01*
Y742123D01*
X655502Y738843D01*
X639103Y722444D02*
X632544D01*
X635824D01*
Y742123D01*
X639103Y738843D01*
X622705Y722444D02*
Y725724D01*
X619425D01*
Y722444D01*
X622705D01*
X593187Y742123D02*
X606306D01*
Y732284D01*
X599746Y735563D01*
X596466D01*
X593187Y732284D01*
Y725724D01*
X596466Y722444D01*
X603026D01*
X606306Y725724D01*
X586627Y722444D02*
Y742123D01*
Y729004D02*
X576788Y735563D01*
X586627Y729004D02*
X576788Y722444D01*
X794294Y428813D02*
X813973D01*
Y438652D01*
X810693Y441932D01*
X804134D01*
X800854Y438652D01*
Y428813D01*
Y435373D02*
X794294Y441932D01*
Y448492D02*
Y455051D01*
Y451772D01*
X813973D01*
X810693Y448492D01*
X794294Y464891D02*
X813973D01*
X800854D02*
X807413Y474730D01*
X800854Y464891D02*
X794294Y474730D01*
%TF.MD5,beb4c47ae2e3b7a3b91d0fce5ac2c264*%
M02*
