%TF.GenerationSoftware,Altium Limited,Altium Designer,21.6.4 (81)*%
G04 Layer_Color=32896*
%FSLAX26Y26*%
%MOIN*%
%TF.SameCoordinates,D1CDB01D-C4A6-469F-8C54-8347A019B806*%
%TF.FilePolarity,Positive*%
%TF.FileFunction,Other,Top_Assembly*%
%TF.Part,Single*%
G01*
G75*
%TA.AperFunction,NonConductor*%
%ADD33C,0.007874*%
G36*
X1023360Y503355D02*
X1020266D01*
Y517733D01*
X1012950Y510271D01*
X1008909D01*
X1015935Y517078D01*
X1008218Y528544D01*
X1012040D01*
X1018119Y519225D01*
X1020266Y521300D01*
Y528544D01*
X1023360D01*
Y503355D01*
D02*
G37*
G36*
X1067914D02*
X1056229D01*
X1055938Y503391D01*
X1055611D01*
X1054846Y503428D01*
X1054045Y503537D01*
X1053172Y503646D01*
X1052371Y503828D01*
X1051971Y503937D01*
X1051643Y504047D01*
X1051607D01*
X1051570Y504083D01*
X1051352Y504192D01*
X1051024Y504338D01*
X1050624Y504593D01*
X1050187Y504920D01*
X1049714Y505357D01*
X1049277Y505867D01*
X1048840Y506449D01*
Y506485D01*
X1048804Y506522D01*
X1048658Y506740D01*
X1048513Y507104D01*
X1048294Y507577D01*
X1048112Y508123D01*
X1047930Y508779D01*
X1047821Y509470D01*
X1047785Y510235D01*
Y510271D01*
Y510344D01*
Y510489D01*
X1047821Y510671D01*
Y510926D01*
X1047858Y511181D01*
X1048003Y511800D01*
X1048222Y512528D01*
X1048513Y513292D01*
X1048949Y514057D01*
X1049241Y514421D01*
X1049532Y514785D01*
X1049568Y514821D01*
X1049605Y514857D01*
X1049714Y514967D01*
X1049860Y515076D01*
X1050042Y515221D01*
X1050260Y515367D01*
X1050551Y515549D01*
X1050842Y515767D01*
X1051206Y515949D01*
X1051607Y516131D01*
X1052043Y516350D01*
X1052517Y516532D01*
X1053063Y516677D01*
X1053609Y516859D01*
X1054227Y516969D01*
X1054883Y517078D01*
X1054810Y517114D01*
X1054664Y517187D01*
X1054446Y517333D01*
X1054155Y517478D01*
X1053499Y517879D01*
X1053172Y518133D01*
X1052881Y518352D01*
X1052808Y518425D01*
X1052626Y518607D01*
X1052335Y518898D01*
X1051971Y519262D01*
X1051570Y519771D01*
X1051097Y520317D01*
X1050624Y520973D01*
X1050114Y521701D01*
X1045783Y528544D01*
X1049932D01*
X1053245Y523302D01*
Y523266D01*
X1053318Y523193D01*
X1053390Y523084D01*
X1053499Y522938D01*
X1053754Y522538D01*
X1054082Y522028D01*
X1054482Y521482D01*
X1054883Y520900D01*
X1055283Y520354D01*
X1055647Y519844D01*
X1055684Y519808D01*
X1055793Y519662D01*
X1055975Y519444D01*
X1056229Y519189D01*
X1056775Y518643D01*
X1057067Y518388D01*
X1057358Y518170D01*
X1057394Y518133D01*
X1057467Y518097D01*
X1057613Y518024D01*
X1057831Y517915D01*
X1058050Y517806D01*
X1058304Y517697D01*
X1058887Y517515D01*
X1058923D01*
X1058996Y517478D01*
X1059141D01*
X1059323Y517442D01*
X1059578Y517405D01*
X1059870D01*
X1060270Y517369D01*
X1064565D01*
Y528544D01*
X1067914D01*
Y503355D01*
D02*
G37*
G36*
X1005197D02*
X988162D01*
Y506340D01*
X1001848D01*
Y514129D01*
X990018D01*
Y517114D01*
X1001848D01*
Y528544D01*
X1005197D01*
Y503355D01*
D02*
G37*
G36*
X983976D02*
X974075D01*
X973820Y503391D01*
X973529D01*
X972874Y503464D01*
X972145Y503537D01*
X971381Y503683D01*
X970617Y503865D01*
X969925Y504119D01*
X969889D01*
X969852Y504156D01*
X969634Y504265D01*
X969306Y504447D01*
X968942Y504702D01*
X968505Y505029D01*
X968032Y505430D01*
X967596Y505939D01*
X967195Y506485D01*
X967159Y506558D01*
X967049Y506777D01*
X966867Y507068D01*
X966686Y507505D01*
X966504Y508014D01*
X966322Y508560D01*
X966212Y509179D01*
X966176Y509798D01*
Y509871D01*
Y510053D01*
X966212Y510380D01*
X966285Y510781D01*
X966394Y511254D01*
X966576Y511763D01*
X966795Y512273D01*
X967086Y512819D01*
X967122Y512892D01*
X967231Y513037D01*
X967450Y513329D01*
X967741Y513620D01*
X968105Y513984D01*
X968542Y514384D01*
X969088Y514748D01*
X969707Y515112D01*
X969670D01*
X969597Y515149D01*
X969488Y515185D01*
X969343Y515258D01*
X968906Y515403D01*
X968396Y515658D01*
X967850Y515986D01*
X967231Y516386D01*
X966686Y516859D01*
X966176Y517442D01*
X966139Y517515D01*
X965994Y517733D01*
X965775Y518061D01*
X965557Y518497D01*
X965339Y519080D01*
X965120Y519699D01*
X964975Y520427D01*
X964938Y521227D01*
Y521264D01*
Y521300D01*
Y521519D01*
X964975Y521883D01*
X965048Y522319D01*
X965120Y522829D01*
X965266Y523375D01*
X965448Y523957D01*
X965703Y524540D01*
X965739Y524613D01*
X965848Y524795D01*
X965994Y525049D01*
X966212Y525413D01*
X966504Y525777D01*
X966795Y526178D01*
X967159Y526578D01*
X967559Y526906D01*
X967596Y526942D01*
X967741Y527051D01*
X967996Y527197D01*
X968323Y527343D01*
X968724Y527561D01*
X969197Y527779D01*
X969707Y527961D01*
X970326Y528143D01*
X970398D01*
X970617Y528216D01*
X970981Y528253D01*
X971454Y528325D01*
X972036Y528398D01*
X972728Y528471D01*
X973492Y528507D01*
X974366Y528544D01*
X983976D01*
Y503355D01*
D02*
G37*
G36*
X1035263Y508851D02*
X1035300Y508888D01*
X1035482Y509033D01*
X1035700Y509252D01*
X1036064Y509507D01*
X1036464Y509834D01*
X1036974Y510198D01*
X1037556Y510599D01*
X1038211Y510999D01*
X1038248D01*
X1038284Y511035D01*
X1038503Y511181D01*
X1038867Y511363D01*
X1039303Y511581D01*
X1039813Y511836D01*
X1040359Y512091D01*
X1040905Y512346D01*
X1041451Y512564D01*
Y509579D01*
X1041415D01*
X1041342Y509507D01*
X1041196Y509470D01*
X1041014Y509361D01*
X1040796Y509252D01*
X1040541Y509106D01*
X1039922Y508742D01*
X1039194Y508342D01*
X1038466Y507832D01*
X1037702Y507250D01*
X1036938Y506631D01*
X1036901Y506595D01*
X1036865Y506558D01*
X1036755Y506449D01*
X1036610Y506340D01*
X1036282Y505976D01*
X1035845Y505539D01*
X1035409Y505029D01*
X1034936Y504447D01*
X1034535Y503865D01*
X1034171Y503246D01*
X1032169D01*
Y528544D01*
X1035263D01*
Y508851D01*
D02*
G37*
G36*
X678697Y1058572D02*
X669379Y1052493D01*
X671454Y1050345D01*
X678697D01*
Y1047251D01*
X653509D01*
Y1050345D01*
X667887D01*
X660425Y1057662D01*
Y1061702D01*
X667231Y1054677D01*
X678697Y1062394D01*
Y1058572D01*
D02*
G37*
G36*
X671163Y1043284D02*
X671381D01*
X671963Y1043175D01*
X672655Y1043065D01*
X673383Y1042883D01*
X674184Y1042629D01*
X674948Y1042265D01*
X674985D01*
X675021Y1042228D01*
X675130Y1042155D01*
X675276Y1042083D01*
X675640Y1041864D01*
X676113Y1041537D01*
X676623Y1041136D01*
X677132Y1040663D01*
X677642Y1040081D01*
X678079Y1039462D01*
Y1039425D01*
X678115Y1039389D01*
X678188Y1039280D01*
X678224Y1039134D01*
X678406Y1038770D01*
X678588Y1038297D01*
X678807Y1037678D01*
X678952Y1036987D01*
X679098Y1036222D01*
X679134Y1035385D01*
Y1035203D01*
X679098Y1035021D01*
Y1034730D01*
X679061Y1034402D01*
X678989Y1034038D01*
X678879Y1033601D01*
X678770Y1033165D01*
X678625Y1032655D01*
X678443Y1032145D01*
X678224Y1031636D01*
X677933Y1031090D01*
X677605Y1030580D01*
X677241Y1030071D01*
X676805Y1029561D01*
X676295Y1029088D01*
X676259Y1029051D01*
X676149Y1028979D01*
X676004Y1028869D01*
X675749Y1028724D01*
X675421Y1028505D01*
X675057Y1028323D01*
X674584Y1028105D01*
X674075Y1027887D01*
X673456Y1027632D01*
X672764Y1027413D01*
X672000Y1027231D01*
X671163Y1027049D01*
X670216Y1026867D01*
X669197Y1026758D01*
X668105Y1026685D01*
X666940Y1026649D01*
X666904D01*
X666867D01*
X666758D01*
X666613D01*
X666249Y1026685D01*
X665739D01*
X665157Y1026722D01*
X664465Y1026795D01*
X663701Y1026867D01*
X662863Y1026977D01*
X662026Y1027122D01*
X661116Y1027304D01*
X660243Y1027523D01*
X659369Y1027777D01*
X658532Y1028105D01*
X657731Y1028469D01*
X656967Y1028869D01*
X656311Y1029343D01*
X656275Y1029379D01*
X656202Y1029452D01*
X656057Y1029597D01*
X655838Y1029779D01*
X655620Y1029998D01*
X655401Y1030289D01*
X655110Y1030653D01*
X654855Y1031017D01*
X654601Y1031454D01*
X654309Y1031927D01*
X654091Y1032473D01*
X653836Y1033019D01*
X653654Y1033638D01*
X653509Y1034293D01*
X653436Y1034985D01*
X653399Y1035713D01*
Y1036004D01*
X653436Y1036222D01*
Y1036477D01*
X653472Y1036768D01*
X653618Y1037460D01*
X653800Y1038224D01*
X654091Y1039025D01*
X654528Y1039826D01*
X654783Y1040226D01*
X655074Y1040590D01*
X655110Y1040627D01*
X655147Y1040663D01*
X655256Y1040772D01*
X655365Y1040881D01*
X655547Y1041063D01*
X655765Y1041209D01*
X656275Y1041609D01*
X656930Y1042010D01*
X657731Y1042374D01*
X658641Y1042701D01*
X659660Y1042920D01*
X659915Y1039826D01*
X659879D01*
X659842Y1039789D01*
X659624Y1039753D01*
X659296Y1039644D01*
X658896Y1039498D01*
X658459Y1039353D01*
X658022Y1039134D01*
X657622Y1038879D01*
X657294Y1038625D01*
X657221Y1038552D01*
X657076Y1038406D01*
X656857Y1038151D01*
X656603Y1037787D01*
X656384Y1037314D01*
X656166Y1036805D01*
X656020Y1036186D01*
X655947Y1035531D01*
Y1035276D01*
X655984Y1034985D01*
X656057Y1034657D01*
X656166Y1034220D01*
X656311Y1033783D01*
X656493Y1033347D01*
X656785Y1032910D01*
X656821Y1032837D01*
X656967Y1032655D01*
X657221Y1032400D01*
X657585Y1032073D01*
X658022Y1031709D01*
X658532Y1031308D01*
X659187Y1030944D01*
X659915Y1030580D01*
X659951D01*
X660024Y1030544D01*
X660133Y1030507D01*
X660279Y1030435D01*
X660497Y1030398D01*
X660752Y1030325D01*
X661043Y1030253D01*
X661407Y1030180D01*
X661808Y1030071D01*
X662245Y1029998D01*
X662718Y1029925D01*
X663227Y1029889D01*
X663810Y1029816D01*
X664392Y1029779D01*
X665047Y1029743D01*
X665703D01*
X665666Y1029779D01*
X665448Y1029925D01*
X665157Y1030180D01*
X664793Y1030507D01*
X664356Y1030871D01*
X663955Y1031345D01*
X663555Y1031854D01*
X663191Y1032437D01*
Y1032473D01*
X663155Y1032509D01*
X663045Y1032728D01*
X662936Y1033055D01*
X662754Y1033492D01*
X662609Y1034002D01*
X662499Y1034584D01*
X662390Y1035203D01*
X662354Y1035858D01*
Y1036149D01*
X662390Y1036368D01*
X662427Y1036659D01*
X662463Y1036950D01*
X662536Y1037314D01*
X662645Y1037678D01*
X662900Y1038515D01*
X663082Y1038952D01*
X663337Y1039389D01*
X663591Y1039826D01*
X663883Y1040299D01*
X664247Y1040736D01*
X664647Y1041136D01*
X664683Y1041173D01*
X664756Y1041245D01*
X664865Y1041355D01*
X665047Y1041464D01*
X665302Y1041646D01*
X665557Y1041828D01*
X665885Y1042010D01*
X666249Y1042228D01*
X666649Y1042447D01*
X667086Y1042629D01*
X667595Y1042811D01*
X668105Y1042993D01*
X668651Y1043102D01*
X669270Y1043211D01*
X669889Y1043284D01*
X670544Y1043320D01*
X670580D01*
X670653D01*
X670762D01*
X670944D01*
X671163Y1043284D01*
D02*
G37*
G36*
X678697Y1015765D02*
X659005D01*
X659041Y1015729D01*
X659187Y1015547D01*
X659405Y1015329D01*
X659660Y1014965D01*
X659988Y1014564D01*
X660352Y1014055D01*
X660752Y1013472D01*
X661153Y1012817D01*
Y1012781D01*
X661189Y1012744D01*
X661335Y1012526D01*
X661517Y1012162D01*
X661735Y1011725D01*
X661990Y1011215D01*
X662245Y1010669D01*
X662499Y1010123D01*
X662718Y1009577D01*
X659733D01*
Y1009614D01*
X659660Y1009687D01*
X659624Y1009832D01*
X659515Y1010014D01*
X659405Y1010233D01*
X659260Y1010487D01*
X658896Y1011106D01*
X658495Y1011834D01*
X657986Y1012562D01*
X657403Y1013327D01*
X656785Y1014091D01*
X656748Y1014127D01*
X656712Y1014164D01*
X656603Y1014273D01*
X656493Y1014419D01*
X656129Y1014746D01*
X655693Y1015183D01*
X655183Y1015620D01*
X654601Y1016093D01*
X654018Y1016493D01*
X653399Y1016857D01*
Y1018859D01*
X678697D01*
Y1015765D01*
D02*
G37*
G36*
Y999167D02*
X675167D01*
Y1002698D01*
X678697D01*
Y999167D01*
D02*
G37*
G36*
X671818Y994326D02*
X672109Y994289D01*
X672437Y994217D01*
X672801Y994144D01*
X673201Y994071D01*
X674075Y993780D01*
X674548Y993561D01*
X674985Y993343D01*
X675458Y993052D01*
X675931Y992724D01*
X676404Y992360D01*
X676841Y991923D01*
X676877Y991887D01*
X676950Y991814D01*
X677059Y991669D01*
X677205Y991487D01*
X677387Y991268D01*
X677569Y990977D01*
X677787Y990649D01*
X677969Y990249D01*
X678188Y989849D01*
X678406Y989375D01*
X678588Y988902D01*
X678770Y988356D01*
X678916Y987774D01*
X679025Y987155D01*
X679098Y986536D01*
X679134Y985845D01*
Y985517D01*
X679098Y985299D01*
X679061Y985007D01*
X679025Y984680D01*
X678952Y984316D01*
X678879Y983915D01*
X678661Y983042D01*
X678297Y982132D01*
X678079Y981659D01*
X677824Y981222D01*
X677496Y980785D01*
X677169Y980348D01*
X677132Y980312D01*
X677059Y980239D01*
X676950Y980130D01*
X676805Y980021D01*
X676623Y979839D01*
X676368Y979657D01*
X676113Y979438D01*
X675785Y979220D01*
X675421Y979001D01*
X675057Y978783D01*
X674184Y978383D01*
X673165Y978055D01*
X672619Y977946D01*
X672036Y977873D01*
X671636Y980967D01*
X671672D01*
X671745Y981003D01*
X671891Y981040D01*
X672073Y981076D01*
X672291Y981113D01*
X672546Y981185D01*
X673092Y981367D01*
X673747Y981622D01*
X674366Y981950D01*
X674948Y982314D01*
X675458Y982751D01*
X675494Y982823D01*
X675640Y982969D01*
X675822Y983260D01*
X676004Y983624D01*
X676222Y984061D01*
X676404Y984607D01*
X676550Y985226D01*
X676586Y985881D01*
Y986099D01*
X676550Y986245D01*
X676513Y986645D01*
X676404Y987155D01*
X676222Y987737D01*
X675967Y988356D01*
X675603Y988975D01*
X675094Y989557D01*
X675021Y989630D01*
X674803Y989812D01*
X674475Y990031D01*
X674038Y990322D01*
X673492Y990613D01*
X672873Y990831D01*
X672145Y991013D01*
X671345Y991086D01*
X671308D01*
X671235D01*
X671126D01*
X670981Y991050D01*
X670580Y991013D01*
X670107Y990904D01*
X669525Y990759D01*
X668942Y990504D01*
X668360Y990140D01*
X667814Y989667D01*
X667741Y989594D01*
X667595Y989412D01*
X667377Y989121D01*
X667122Y988720D01*
X666867Y988211D01*
X666649Y987592D01*
X666503Y986900D01*
X666431Y986136D01*
Y985808D01*
X666467Y985553D01*
X666503Y985226D01*
X666576Y984862D01*
X666649Y984425D01*
X666758Y983952D01*
X664028Y984316D01*
Y984498D01*
X664065Y984643D01*
Y985117D01*
X663992Y985517D01*
X663919Y985990D01*
X663810Y986536D01*
X663628Y987155D01*
X663373Y987737D01*
X663045Y988356D01*
Y988393D01*
X663009Y988429D01*
X662863Y988611D01*
X662609Y988866D01*
X662281Y989157D01*
X661808Y989448D01*
X661262Y989703D01*
X660643Y989885D01*
X660279Y989958D01*
X659879D01*
X659842D01*
X659806D01*
X659587D01*
X659296Y989885D01*
X658896Y989812D01*
X658459Y989667D01*
X657986Y989485D01*
X657513Y989193D01*
X657076Y988793D01*
X657039Y988757D01*
X656894Y988575D01*
X656712Y988320D01*
X656493Y987992D01*
X656311Y987555D01*
X656129Y987046D01*
X655984Y986463D01*
X655947Y985808D01*
Y985517D01*
X656020Y985189D01*
X656093Y984753D01*
X656239Y984279D01*
X656421Y983806D01*
X656712Y983297D01*
X657076Y982823D01*
X657112Y982787D01*
X657294Y982641D01*
X657549Y982423D01*
X657913Y982168D01*
X658386Y981913D01*
X658969Y981659D01*
X659660Y981440D01*
X660461Y981295D01*
X659915Y978201D01*
X659879D01*
X659769Y978237D01*
X659624Y978273D01*
X659405Y978310D01*
X659151Y978383D01*
X658859Y978492D01*
X658168Y978710D01*
X657367Y979074D01*
X656566Y979511D01*
X655802Y980057D01*
X655110Y980749D01*
X655074Y980785D01*
X655037Y980858D01*
X654965Y980967D01*
X654855Y981113D01*
X654710Y981295D01*
X654564Y981549D01*
X654419Y981804D01*
X654237Y982132D01*
X653945Y982860D01*
X653654Y983697D01*
X653472Y984680D01*
X653399Y985189D01*
Y986099D01*
X653436Y986500D01*
X653509Y986973D01*
X653618Y987555D01*
X653800Y988211D01*
X654018Y988866D01*
X654309Y989521D01*
Y989557D01*
X654346Y989594D01*
X654455Y989812D01*
X654673Y990140D01*
X654928Y990504D01*
X655292Y990941D01*
X655693Y991377D01*
X656166Y991814D01*
X656712Y992178D01*
X656785Y992215D01*
X656967Y992324D01*
X657294Y992469D01*
X657695Y992651D01*
X658168Y992833D01*
X658714Y992979D01*
X659333Y993088D01*
X659951Y993125D01*
X660024D01*
X660243D01*
X660534Y993088D01*
X660934Y993015D01*
X661407Y992906D01*
X661917Y992724D01*
X662427Y992506D01*
X662936Y992215D01*
X663009Y992178D01*
X663155Y992069D01*
X663409Y991851D01*
X663701Y991559D01*
X664028Y991195D01*
X664392Y990759D01*
X664720Y990249D01*
X665047Y989630D01*
Y989667D01*
X665084Y989739D01*
X665120Y989849D01*
X665157Y989994D01*
X665302Y990395D01*
X665521Y990904D01*
X665812Y991487D01*
X666176Y992069D01*
X666649Y992615D01*
X667195Y993125D01*
X667268Y993161D01*
X667486Y993307D01*
X667850Y993525D01*
X668323Y993743D01*
X668906Y993962D01*
X669597Y994180D01*
X670398Y994326D01*
X671272Y994362D01*
X671308D01*
X671417D01*
X671599D01*
X671818Y994326D01*
D02*
G37*
G36*
X678697Y971721D02*
X673456Y968409D01*
X673419D01*
X673347Y968336D01*
X673237Y968263D01*
X673092Y968154D01*
X672691Y967899D01*
X672182Y967572D01*
X671636Y967171D01*
X671053Y966771D01*
X670507Y966371D01*
X669998Y966007D01*
X669961Y965970D01*
X669816Y965861D01*
X669597Y965679D01*
X669343Y965424D01*
X668797Y964878D01*
X668542Y964587D01*
X668323Y964296D01*
X668287Y964259D01*
X668251Y964187D01*
X668178Y964041D01*
X668069Y963823D01*
X667959Y963604D01*
X667850Y963349D01*
X667668Y962767D01*
Y962731D01*
X667632Y962658D01*
Y962512D01*
X667595Y962330D01*
X667559Y962075D01*
Y961784D01*
X667523Y961384D01*
Y957089D01*
X678697D01*
Y953740D01*
X653509D01*
Y965424D01*
X653545Y965715D01*
Y966043D01*
X653581Y966807D01*
X653691Y967608D01*
X653800Y968482D01*
X653982Y969283D01*
X654091Y969683D01*
X654200Y970011D01*
Y970047D01*
X654237Y970083D01*
X654346Y970302D01*
X654491Y970629D01*
X654746Y971030D01*
X655074Y971467D01*
X655511Y971940D01*
X656020Y972377D01*
X656603Y972813D01*
X656639D01*
X656675Y972850D01*
X656894Y972995D01*
X657258Y973141D01*
X657731Y973359D01*
X658277Y973541D01*
X658932Y973723D01*
X659624Y973833D01*
X660388Y973869D01*
X660425D01*
X660497D01*
X660643D01*
X660825Y973833D01*
X661080D01*
X661335Y973796D01*
X661953Y973651D01*
X662681Y973432D01*
X663446Y973141D01*
X664210Y972704D01*
X664574Y972413D01*
X664938Y972122D01*
X664975Y972085D01*
X665011Y972049D01*
X665120Y971940D01*
X665229Y971794D01*
X665375Y971612D01*
X665521Y971394D01*
X665703Y971103D01*
X665921Y970811D01*
X666103Y970447D01*
X666285Y970047D01*
X666503Y969610D01*
X666685Y969137D01*
X666831Y968591D01*
X667013Y968045D01*
X667122Y967426D01*
X667231Y966771D01*
X667268Y966844D01*
X667341Y966989D01*
X667486Y967208D01*
X667632Y967499D01*
X668032Y968154D01*
X668287Y968482D01*
X668505Y968773D01*
X668578Y968846D01*
X668760Y969028D01*
X669051Y969319D01*
X669415Y969683D01*
X669925Y970083D01*
X670471Y970557D01*
X671126Y971030D01*
X671854Y971539D01*
X678697Y975871D01*
Y971721D01*
D02*
G37*
%LPC*%
G36*
X1064565Y514493D02*
X1057067D01*
X1056630Y514457D01*
X1056120Y514421D01*
X1055538Y514384D01*
X1054956Y514311D01*
X1054373Y514202D01*
X1053863Y514057D01*
X1053791Y514020D01*
X1053645Y513947D01*
X1053427Y513838D01*
X1053136Y513693D01*
X1052808Y513474D01*
X1052480Y513219D01*
X1052153Y512892D01*
X1051898Y512528D01*
X1051861Y512491D01*
X1051789Y512346D01*
X1051679Y512127D01*
X1051534Y511836D01*
X1051425Y511509D01*
X1051315Y511145D01*
X1051243Y510708D01*
X1051206Y510271D01*
Y510235D01*
Y510198D01*
X1051243Y509980D01*
X1051279Y509652D01*
X1051352Y509215D01*
X1051534Y508779D01*
X1051752Y508269D01*
X1052080Y507796D01*
X1052517Y507323D01*
X1052590Y507286D01*
X1052772Y507141D01*
X1053063Y506959D01*
X1053536Y506740D01*
X1054082Y506522D01*
X1054810Y506340D01*
X1055647Y506194D01*
X1056630Y506158D01*
X1064565D01*
Y514493D01*
D02*
G37*
G36*
X980627Y525559D02*
X973456D01*
X972692Y525523D01*
X972364Y525486D01*
X972073Y525450D01*
X972036D01*
X971891Y525413D01*
X971672Y525377D01*
X971418Y525304D01*
X970799Y525086D01*
X970180Y524795D01*
X970144Y524758D01*
X970034Y524685D01*
X969889Y524576D01*
X969707Y524431D01*
X969525Y524212D01*
X969270Y523994D01*
X969088Y523703D01*
X968870Y523375D01*
X968833Y523339D01*
X968797Y523229D01*
X968724Y523011D01*
X968615Y522756D01*
X968505Y522465D01*
X968433Y522101D01*
X968396Y521664D01*
X968360Y521227D01*
Y521155D01*
Y521009D01*
X968396Y520718D01*
X968469Y520390D01*
X968542Y520026D01*
X968688Y519626D01*
X968870Y519225D01*
X969124Y518825D01*
X969161Y518789D01*
X969270Y518643D01*
X969415Y518461D01*
X969634Y518243D01*
X969925Y517988D01*
X970289Y517733D01*
X970689Y517515D01*
X971163Y517333D01*
X971236Y517296D01*
X971381Y517260D01*
X971709Y517187D01*
X972109Y517114D01*
X972619Y517041D01*
X973237Y516969D01*
X974002Y516896D01*
X980627D01*
Y525559D01*
D02*
G37*
G36*
Y513911D02*
X974439D01*
X973966Y513875D01*
X973456Y513838D01*
X972946Y513802D01*
X972437Y513729D01*
X972036Y513656D01*
X971963Y513620D01*
X971818Y513583D01*
X971600Y513474D01*
X971308Y513329D01*
X971017Y513183D01*
X970689Y512965D01*
X970362Y512673D01*
X970107Y512382D01*
X970071Y512346D01*
X969998Y512237D01*
X969889Y512018D01*
X969779Y511763D01*
X969670Y511472D01*
X969561Y511108D01*
X969488Y510671D01*
X969452Y510198D01*
Y510125D01*
Y509980D01*
X969488Y509761D01*
X969525Y509470D01*
X969597Y509106D01*
X969707Y508742D01*
X969852Y508378D01*
X970071Y508014D01*
X970107Y507978D01*
X970180Y507869D01*
X970326Y507687D01*
X970508Y507505D01*
X970762Y507286D01*
X971053Y507068D01*
X971418Y506849D01*
X971818Y506704D01*
X971854D01*
X972036Y506631D01*
X972291Y506595D01*
X972692Y506522D01*
X973237Y506449D01*
X973856Y506413D01*
X974657Y506340D01*
X980627D01*
Y513911D01*
D02*
G37*
G36*
X670726Y1040153D02*
X670689D01*
X670617D01*
X670471D01*
X670289Y1040117D01*
X670071D01*
X669816Y1040081D01*
X669233Y1039971D01*
X668578Y1039826D01*
X667887Y1039571D01*
X667231Y1039207D01*
X666613Y1038734D01*
X666540Y1038661D01*
X666358Y1038479D01*
X666139Y1038188D01*
X665848Y1037787D01*
X665557Y1037278D01*
X665339Y1036695D01*
X665157Y1036004D01*
X665084Y1035239D01*
Y1035021D01*
X665120Y1034875D01*
X665157Y1034511D01*
X665266Y1034002D01*
X665448Y1033456D01*
X665739Y1032837D01*
X666103Y1032255D01*
X666613Y1031672D01*
X666685Y1031599D01*
X666867Y1031454D01*
X667195Y1031199D01*
X667668Y1030944D01*
X668214Y1030689D01*
X668906Y1030435D01*
X669670Y1030289D01*
X670544Y1030216D01*
X670617D01*
X670799D01*
X671126Y1030253D01*
X671527Y1030289D01*
X672000Y1030362D01*
X672509Y1030507D01*
X673055Y1030653D01*
X673601Y1030871D01*
X673674Y1030908D01*
X673856Y1031017D01*
X674111Y1031163D01*
X674439Y1031381D01*
X674766Y1031636D01*
X675167Y1031963D01*
X675494Y1032327D01*
X675822Y1032764D01*
X675858Y1032837D01*
X675931Y1032983D01*
X676077Y1033237D01*
X676186Y1033565D01*
X676331Y1033929D01*
X676477Y1034366D01*
X676550Y1034839D01*
X676586Y1035349D01*
Y1035531D01*
X676550Y1035676D01*
X676513Y1036040D01*
X676404Y1036513D01*
X676186Y1037023D01*
X675931Y1037605D01*
X675531Y1038188D01*
X675312Y1038479D01*
X675021Y1038734D01*
X674985D01*
X674948Y1038807D01*
X674730Y1038952D01*
X674366Y1039171D01*
X673893Y1039462D01*
X673274Y1039717D01*
X672546Y1039935D01*
X671709Y1040081D01*
X670726Y1040153D01*
D02*
G37*
G36*
X660425Y970447D02*
X660388D01*
X660352D01*
X660133Y970411D01*
X659806Y970375D01*
X659369Y970302D01*
X658932Y970120D01*
X658423Y969901D01*
X657949Y969574D01*
X657476Y969137D01*
X657440Y969064D01*
X657294Y968882D01*
X657112Y968591D01*
X656894Y968118D01*
X656675Y967572D01*
X656493Y966844D01*
X656348Y966007D01*
X656311Y965024D01*
Y957089D01*
X664647D01*
Y964587D01*
X664611Y965024D01*
X664574Y965533D01*
X664538Y966116D01*
X664465Y966698D01*
X664356Y967281D01*
X664210Y967790D01*
X664174Y967863D01*
X664101Y968009D01*
X663992Y968227D01*
X663846Y968518D01*
X663628Y968846D01*
X663373Y969173D01*
X663045Y969501D01*
X662681Y969756D01*
X662645Y969792D01*
X662499Y969865D01*
X662281Y969974D01*
X661990Y970120D01*
X661662Y970229D01*
X661298Y970338D01*
X660861Y970411D01*
X660425Y970447D01*
D02*
G37*
%LPD*%
D33*
X1142716Y489173D02*
Y567913D01*
X993110D02*
X1142716D01*
X993110Y489173D02*
Y567913D01*
Y489173D02*
X1142716D01*
X639764Y878937D02*
X718504D01*
Y1028543D01*
X639764D02*
X718504D01*
X639764Y878937D02*
Y1028543D01*
%TF.MD5,60e948c7eb2d1087ea3243c17f11a361*%
M02*
