%TF.GenerationSoftware,Altium Limited,Altium Designer,21.6.4 (81)*%
G04 Layer_Color=13278208*
%FSLAX26Y26*%
%MOIN*%
%TF.SameCoordinates,D1CDB01D-C4A6-469F-8C54-8347A019B806*%
%TF.FilePolarity,Positive*%
%TF.FileFunction,Coverlay,Top_Solder_(Board_Layer_Stack)*%
%TF.Part,Single*%
G01*
G75*
%TA.AperFunction,SMDPad,CuDef*%
%ADD10O,0.060000X0.620000*%
%ADD12R,0.057087X0.051401*%
%ADD13R,0.138000X0.077000*%
%ADD14R,0.063000X0.038000*%
%ADD15R,0.041339X0.070866*%
%ADD16R,0.070866X0.041339*%
%TA.AperFunction,ComponentPad*%
%ADD35C,0.080000*%
%ADD36R,0.080000X0.080000*%
%ADD37C,0.088709*%
%ADD38C,0.084772*%
%ADD39R,0.084772X0.084772*%
%TA.AperFunction,ViaPad*%
%ADD40C,0.043433*%
%ADD41C,0.031622*%
%TA.AperFunction,SMDPad,CuDef*%
%ADD47R,0.107213X0.098945*%
%TA.AperFunction,Profile*%
%ADD50C,0.001000*%
D10*
X532756Y1881890D02*
D03*
X1122756D02*
D03*
D12*
X846457Y799323D02*
D03*
Y736110D02*
D03*
D13*
X1599409Y1679976D02*
D03*
Y1447976D02*
D03*
D14*
X412401Y667394D02*
D03*
Y783394D02*
D03*
D15*
X1017716Y528543D02*
D03*
X1118110D02*
D03*
D16*
X679134Y1003937D02*
D03*
Y903543D02*
D03*
D35*
X532283Y483464D02*
D03*
X732283Y533465D02*
D03*
X532283Y583465D02*
D03*
X732283Y633465D02*
D03*
X532283Y683465D02*
D03*
X732283Y733465D02*
D03*
D36*
X532283Y783465D02*
D03*
D37*
X1060827Y1181102D02*
D03*
X529724D02*
D03*
D38*
X1907480Y1422244D02*
D03*
X1907480Y634842D02*
D03*
D39*
X1907480Y1225394D02*
D03*
X1907480Y437992D02*
D03*
D40*
X1374016Y1106299D02*
D03*
X1433071D02*
D03*
X1740158Y408465D02*
D03*
X1741142Y470472D02*
D03*
X1740158Y1194882D02*
D03*
X1741142Y1256890D02*
D03*
X842520Y594488D02*
D03*
Y649606D02*
D03*
X868110Y880905D02*
D03*
X813976Y881890D02*
D03*
X1014764Y1094488D02*
D03*
X955708D02*
D03*
X1617126Y1109252D02*
D03*
X1628937Y1316929D02*
D03*
X1569882D02*
D03*
X1558071Y1109252D02*
D03*
X1216535Y1103346D02*
D03*
X1157480D02*
D03*
D41*
X1176181Y529528D02*
D03*
D47*
X1401575Y977362D02*
D03*
Y733268D02*
D03*
X986220Y982283D02*
D03*
Y738189D02*
D03*
X1191929Y979331D02*
D03*
Y735236D02*
D03*
X1607283Y977362D02*
D03*
Y733268D02*
D03*
D50*
X2362205Y-0D02*
X-0D01*
Y2755906D01*
X2362205D01*
Y-0D01*
%TF.MD5,78e3ae0e6521e92127a61851506cd59c*%
M02*
