G04*
G04 #@! TF.GenerationSoftware,Altium Limited,Altium Designer,21.6.4 (81)*
G04*
G04 Layer_Color=16711935*
%FSLAX25Y25*%
%MOIN*%
G70*
G04*
G04 #@! TF.SameCoordinates,3BB88ACB-4834-4669-B5BA-B87AFEF295BA*
G04*
G04*
G04 #@! TF.FilePolarity,Positive*
G04*
G01*
G75*
%ADD10C,0.02000*%
%ADD11C,0.00787*%
%ADD13C,0.00500*%
%ADD14C,0.00394*%
%ADD48C,0.00100*%
D10*
X125776Y180689D02*
X125425Y181653D01*
X124536Y182166D01*
X123526Y181988D01*
X122866Y181202D01*
Y180176D01*
X123526Y179390D01*
X124536Y179212D01*
X125425Y179725D01*
X125776Y180689D01*
D11*
X140551Y65531D02*
X139764D01*
X140551D01*
X99016Y66024D02*
X98228D01*
X99016D01*
X119587Y65728D02*
X118799D01*
X119587D01*
X161122Y65531D02*
X160335D01*
X161122D01*
D13*
X131299Y70768D02*
X149016D01*
X131299Y100295D02*
X149016D01*
X131299Y70768D02*
Y100295D01*
X149016Y70768D02*
Y100295D01*
X89764Y71260D02*
X107480D01*
X89764Y100787D02*
X107480D01*
X89764Y71260D02*
Y100787D01*
X107480Y71260D02*
Y100787D01*
X110335Y70965D02*
X128051D01*
X110335Y100492D02*
X128051D01*
X110335Y70965D02*
Y100492D01*
X128051Y70965D02*
Y100492D01*
X151870Y70768D02*
X169587D01*
X151870Y100295D02*
X169587D01*
X151870Y70768D02*
Y100295D01*
X169587Y70768D02*
Y100295D01*
D14*
X176969Y112697D02*
X206496D01*
X176969Y152067D02*
X206496D01*
X176969Y112697D02*
Y152067D01*
X206496Y112697D02*
Y152067D01*
X203346Y132382D02*
X206496D01*
X203346Y112697D02*
Y152067D01*
X176969Y33957D02*
X206496D01*
X176969Y73327D02*
X206496D01*
X176969Y33957D02*
Y73327D01*
X206496Y33957D02*
Y73327D01*
X203346Y53642D02*
X206496D01*
X203346Y33957D02*
Y73327D01*
D48*
X129776Y141189D02*
Y235189D01*
X35776Y141189D02*
X129776D01*
X35776D02*
Y235189D01*
X129776D01*
X66028Y83846D02*
X76028D01*
X84528Y42846D02*
Y83846D01*
X66028Y42846D02*
Y83846D01*
X81791Y72441D02*
X87500D01*
X81791D02*
Y81102D01*
X87500D01*
Y72441D02*
Y81102D01*
X81791Y78150D02*
Y81102D01*
X87500D01*
Y78150D02*
Y81102D01*
X81791Y78150D02*
X87500D01*
Y72441D02*
Y75394D01*
X81791Y72441D02*
X87500D01*
X81791D02*
Y75394D01*
X87500D01*
X153041Y142348D02*
X166841D01*
X153041D02*
Y170448D01*
X166841D01*
Y142348D02*
Y170448D01*
X153041Y164148D02*
Y170448D01*
X166841D01*
Y164148D02*
Y170448D01*
X153041Y164148D02*
X166841D01*
Y142348D02*
Y148648D01*
X153041Y142348D02*
X166841D01*
X153041D02*
Y148648D01*
X166841D01*
X38090Y68639D02*
X44390D01*
X38090Y66239D02*
Y68639D01*
Y66239D02*
X44390D01*
Y68639D01*
X38090Y76439D02*
X44390D01*
Y78839D01*
X38090D02*
X44390D01*
X38090Y76439D02*
Y78839D01*
X44390Y66239D02*
Y78839D01*
X38090D02*
X44390D01*
X38090Y66239D02*
Y78839D01*
Y66239D02*
X44390D01*
M02*
