M48
;Layer_Color=9474304
;FILE_FORMAT=2:4
INCH,TZ
;TYPE=PLATED
T1F00S00C0.0118
T2F00S00C0.0236
T3F00S00C0.0512
T4F00S00C0.0520
T5F00S00C0.0610
%
T01
X11762Y5295
T02
X17402Y4085
X17411Y4705
X17402Y11949
X17411Y12569
X16289Y13169
X15699
X15581Y11093
X16171
X14331Y11063
X13740
X12165Y11033
X11575
X10148Y10945
X9557
X8681Y8809
X8140Y8819
X8425Y6496
Y5945
T03
X19075Y4380
Y6348
X19075Y12254
Y14222
T04
X5323Y4835
Y5835
Y6835
Y7835
X7323Y7335
Y6335
Y5335
T05
X5297Y11811
X10608
M30
